<?xml version="1.0" standalone="no"?>
<!DOCTYPE svg PUBLIC "-//W3C//DTD SVG 20010904//EN"
 "http://www.w3.org/TR/2001/REC-SVG-20010904/DTD/svg10.dtd">
<svg version="1.0" xmlns="http://www.w3.org/2000/svg"
 width="810.000000pt" height="810.000000pt" viewBox="0 0 810.000000 810.000000"
 preserveAspectRatio="xMidYMid meet">

<g transform="translate(0.000000,810.000000) scale(0.100000,-0.100000)"
fill="#000000" stroke="none">
<path d="M3975 7153 c-72 -26 -112 -58 -145 -116 -77 -134 -31 -295 104 -364
59 -31 175 -42 242 -24 43 11 105 49 110 66 2 6 -12 27 -30 48 l-33 39 -39
-21 c-81 -44 -197 -19 -231 49 l-12 25 193 3 c188 2 194 3 199 24 9 33 -11
117 -38 164 -59 101 -203 149 -320 107z m144 -109 c42 -16 71 -50 71 -82 0
-17 -9 -18 -122 -14 -68 2 -124 6 -126 7 -6 5 26 61 42 75 13 10 55 24 88 29
4 1 25 -6 47 -15z"/>
<path d="M4426 6888 c-27 -134 -49 -247 -50 -252 -1 -10 132 -41 140 -33 2 2
16 60 30 128 30 151 39 174 75 200 23 16 42 20 86 18 l57 -3 13 60 c7 32 12
62 13 67 0 15 -106 6 -146 -12 l-42 -19 2 31 c1 30 -2 32 -49 43 -27 7 -57 13
-65 13 -12 1 -26 -50 -64 -241z"/>
<path d="M3409 7095 c-25 -8 -62 -31 -83 -51 -35 -34 -38 -35 -43 -15 -3 12
-11 21 -19 21 -15 0 -117 -21 -122 -25 -2 -1 31 -146 72 -321 42 -176 78 -329
81 -341 5 -21 6 -21 72 -6 38 9 70 17 72 19 4 4 -20 116 -46 215 -6 21 -5 21
27 4 76 -39 211 0 278 81 84 101 66 274 -38 367 -72 65 -154 81 -251 52z m126
-135 c57 -35 82 -137 50 -200 -30 -57 -125 -82 -179 -47 -62 41 -87 144 -49
208 34 57 119 76 178 39z"/>
<path d="M2817 6880 c-127 -32 -224 -135 -235 -250 -9 -99 47 -203 138 -254
109 -61 257 -31 351 71 52 57 70 101 70 173 1 100 -57 196 -143 241 -44 23
-129 32 -181 19z m103 -142 c104 -71 106 -199 4 -249 -73 -35 -137 -12 -174
61 -41 81 -18 164 54 196 45 19 79 17 116 -8z"/>
<path d="M2215 6740 c-27 -22 -50 -46 -49 -53 1 -12 365 -500 403 -540 16 -16
20 -15 71 23 30 23 55 44 55 48 0 9 -418 562 -425 561 -3 0 -27 -18 -55 -39z"/>
<path d="M5623 6477 c-178 -83 -323 -154 -323 -158 0 -4 24 -28 54 -54 l54
-46 61 30 c33 17 66 31 73 31 10 0 182 -141 232 -190 5 -5 -1 -36 -13 -71 -11
-35 -21 -69 -21 -76 0 -21 106 -111 117 -100 3 3 52 158 109 344 l104 338 -57
53 c-31 28 -59 52 -62 51 -3 0 -151 -69 -328 -152z m274 -54 c-55 -171 -70
-213 -78 -213 -9 0 -142 117 -147 129 -2 6 214 119 230 120 4 1 1 -16 -5 -36z"/>
<path d="M5008 6599 c-32 -12 -62 -71 -54 -105 21 -81 134 -96 171 -23 22 41
18 65 -12 98 -32 35 -66 44 -105 30z"/>
<path d="M2100 6351 c-111 -34 -210 -161 -210 -271 0 -51 30 -126 67 -169 50
-59 120 -91 198 -91 77 0 130 24 200 91 59 55 89 110 100 177 l7 42 -61 0
c-51 0 -61 -3 -61 -17 0 -9 -10 -37 -21 -61 -35 -71 -125 -118 -183 -96 -9 3
-16 11 -16 16 0 5 55 68 123 139 67 71 123 135 125 143 4 16 -80 79 -127 95
-38 12 -103 13 -141 2z m103 -128 c15 -9 5 -24 -75 -108 -75 -79 -83 -85 -95
-69 -23 32 -16 99 14 135 43 50 110 69 156 42z"/>
<path d="M6115 6015 c-137 -107 -254 -201 -259 -209 -9 -13 9 -41 74 -119 9
-10 525 391 524 408 -2 14 -75 114 -84 114 -3 0 -117 -88 -255 -194z"/>
<path d="M1710 5953 c-16 -27 -30 -54 -30 -62 0 -8 45 -75 101 -148 118 -158
122 -165 83 -158 -83 15 -296 45 -317 45 -20 0 -32 -13 -61 -61 -20 -34 -35
-63 -34 -64 6 -6 542 -74 548 -70 4 3 24 32 43 65 l36 60 -162 220 c-89 121
-165 220 -169 220 -5 0 -21 -21 -38 -47z"/>
<path d="M6440 5518 c-168 -60 -306 -111 -308 -113 -5 -4 106 -302 132 -353
35 -68 97 -129 166 -161 151 -70 362 9 431 161 20 44 24 68 23 148 0 91 -3
102 -61 260 -34 90 -65 165 -70 167 -4 1 -145 -48 -313 -109z m290 -177 c24
-74 31 -110 27 -140 -14 -104 -90 -172 -201 -179 -72 -5 -103 8 -154 61 -34
35 -107 205 -94 219 8 8 361 137 378 137 6 1 26 -44 44 -98z"/>
<path d="M1529 5371 c-122 -25 -209 -141 -209 -280 1 -233 297 -348 450 -175
83 95 117 269 67 338 -12 17 -16 16 -60 -5 l-47 -23 6 -52 c7 -60 -7 -112 -42
-154 -23 -27 -89 -58 -101 -47 -5 5 74 269 98 325 5 13 9 29 9 37 0 25 -109
49 -171 36z m48 -145 c-3 -8 -20 -61 -38 -118 -18 -57 -34 -105 -36 -107 -6
-8 -52 41 -63 70 -30 70 32 169 105 169 28 0 36 -3 32 -14z"/>
<path d="M6524 4784 c-54 -19 -111 -75 -137 -133 -41 -93 -32 -228 21 -310 36
-56 49 -58 94 -14 33 33 36 39 23 53 -42 47 -58 147 -30 200 16 31 65 74 74
65 5 -6 29 -282 30 -354 l1 -34 56 7 c67 8 118 33 160 78 54 57 68 94 68 183
0 67 -4 88 -26 130 -32 62 -69 98 -128 124 -54 25 -145 27 -206 5z m203 -151
c30 -20 55 -87 47 -129 -7 -38 -53 -94 -77 -94 -19 0 -24 25 -32 153 l-7 99
23 -7 c13 -5 34 -14 46 -22z"/>
<path d="M1245 4762 c-33 -16 -75 -46 -94 -67 -75 -86 -98 -179 -103 -425 l-3
-135 328 -14 c180 -7 331 -11 334 -7 3 3 6 101 7 218 l1 213 -29 63 c-31 67
-80 118 -148 153 -33 18 -64 24 -138 26 -88 4 -99 2 -155 -25z m210 -133 c23
-7 57 -28 81 -53 52 -51 66 -109 57 -226 l-6 -82 -201 7 c-111 4 -204 10 -208
14 -3 3 -3 52 2 108 6 84 13 111 34 148 46 78 142 111 241 84z"/>
<path d="M6655 4149 c-121 -32 -237 -63 -257 -69 -35 -10 -37 -12 -43 -68 -4
-31 -9 -65 -11 -74 -6 -22 464 -307 476 -288 7 12 23 121 18 125 -2 1 -74 44
-160 96 -87 51 -154 96 -150 99 4 4 84 25 177 49 94 23 171 44 172 45 5 4 23
108 23 127 0 11 -6 18 -12 18 -7 -1 -112 -28 -233 -60z"/>
<path d="M6352 3644 c-28 -14 -63 -39 -77 -56 -63 -74 -100 -195 -86 -274 13
-70 16 -72 97 -38 31 13 32 16 24 45 -12 40 3 112 31 151 25 34 72 60 103 56
22 -3 22 -7 -45 -183 -74 -193 -74 -186 -9 -205 172 -49 340 84 340 269 0 191
-207 320 -378 235z m255 -212 c30 -71 -36 -172 -113 -172 -30 0 -35 3 -29 18
4 9 19 51 35 92 55 148 48 135 72 114 11 -11 27 -34 35 -52z"/>
<path d="M1525 3425 c-159 -79 -294 -146 -299 -147 -6 -3 44 -119 59 -136 1
-2 83 35 180 83 98 47 179 84 181 82 2 -1 -44 -105 -102 -230 -57 -125 -104
-232 -104 -238 0 -23 43 -109 55 -109 9 0 581 275 593 285 5 4 -62 135 -68
135 -3 0 -84 -38 -179 -85 -96 -47 -175 -84 -176 -83 -1 2 46 109 105 238
l108 235 -29 58 c-16 31 -30 57 -32 56 -1 0 -132 -65 -292 -144z"/>
<path d="M6054 3139 c-30 -49 -34 -63 -23 -70 65 -42 600 -351 603 -348 20 23
67 122 60 128 -11 10 -592 351 -598 351 -3 0 -21 -27 -42 -61z"/>
<path d="M2076 2869 c-15 -68 -28 -125 -30 -126 -2 -2 -15 1 -30 7 -65 24
-146 7 -213 -46 -54 -44 -83 -105 -83 -175 0 -94 40 -157 217 -349 l70 -74
246 223 c136 122 247 225 247 227 0 3 -23 30 -51 59 l-51 55 -66 -60 c-36 -33
-68 -60 -72 -60 -4 0 -26 23 -50 51 l-43 51 18 86 c10 48 22 97 26 109 7 19
-1 33 -49 85 l-58 61 -28 -124z m-23 -286 c12 -10 44 -41 70 -69 l47 -51 -84
-77 c-46 -42 -87 -76 -90 -76 -10 0 -90 91 -113 128 -27 43 -29 72 -9 111 36
68 117 84 179 34z"/>
<path d="M5970 2916 c-138 -37 -243 -183 -227 -317 21 -175 217 -282 374 -204
60 30 127 99 154 158 28 63 26 164 -6 226 -54 108 -183 168 -295 137z m121
-161 c61 -40 85 -116 54 -175 -65 -126 -265 -69 -265 75 0 50 27 91 75 115 47
24 82 20 136 -15z"/>
<path d="M5447 2689 c-36 -25 -54 -45 -50 -52 4 -7 33 -49 65 -93 32 -45 58
-84 58 -88 0 -3 -18 -6 -40 -6 -75 0 -171 -72 -205 -152 -21 -51 -19 -143 4
-194 46 -100 150 -174 246 -174 92 0 218 83 232 152 7 37 19 43 33 18 10 -19
13 -19 70 22 l59 41 -44 61 c-24 34 -114 159 -200 278 -86 120 -159 220 -164
222 -4 3 -33 -13 -64 -35z m168 -370 c66 -59 83 -125 45 -186 -52 -86 -175
-81 -230 9 -30 49 -34 91 -15 132 38 79 136 101 200 45z"/>
<path d="M2516 2496 c-52 -81 -63 -62 95 -167 78 -52 146 -97 152 -101 6 -4
-6 -31 -32 -71 l-42 -66 -130 86 c-72 47 -131 84 -133 82 -1 -2 -17 -25 -34
-50 l-32 -47 128 -83 c70 -45 129 -84 131 -85 3 -3 -22 -45 -70 -116 -3 -5
-72 34 -153 87 -81 53 -149 95 -150 93 -2 -2 -17 -24 -34 -50 l-32 -47 22 -16
c13 -9 107 -72 210 -140 134 -88 190 -120 197 -111 10 12 91 135 258 389 l103
158 -205 135 c-112 74 -210 137 -218 140 -8 3 -21 -6 -31 -20z"/>
<path d="M2936 1888 c-49 -167 -91 -310 -93 -319 -4 -13 8 -21 46 -34 28 -9
57 -15 66 -13 8 2 90 73 181 158 92 85 170 156 173 158 4 1 29 -82 55 -185 79
-305 67 -276 132 -297 31 -10 59 -14 63 -9 4 4 47 143 96 308 48 165 90 305
92 312 6 15 -129 57 -138 42 -3 -6 -28 -86 -54 -180 -27 -93 -52 -169 -55
-169 -3 0 -26 77 -51 171 -43 170 -44 172 -77 186 l-34 14 -95 -88 c-52 -48
-116 -107 -143 -131 -48 -42 -49 -42 -40 -15 24 76 100 340 100 349 0 7 -110
44 -132 44 -2 0 -44 -136 -92 -302z"/>
<path d="M4960 2176 c-83 -17 -159 -64 -198 -122 l-33 -48 50 -25 51 -25 34
37 c60 66 150 86 214 47 17 -11 32 -23 32 -28 0 -5 -77 -40 -171 -78 -94 -38
-174 -75 -177 -82 -13 -34 66 -140 127 -172 89 -45 206 -30 296 38 69 53 100
116 100 207 -1 178 -145 289 -325 251z m190 -290 c0 -60 -64 -116 -132 -116
-37 0 -98 33 -98 52 0 12 187 95 218 97 7 1 12 -12 12 -33z"/>
<path d="M4547 2045 c-32 -7 -59 -14 -61 -16 -2 -2 7 -60 21 -129 37 -190 22
-247 -74 -272 -24 -6 -43 -14 -43 -18 0 -37 25 -120 37 -120 26 0 98 42 125
73 l27 32 1 -32 c0 -37 2 -38 83 -22 65 13 65 13 43 111 -8 35 -28 141 -46
236 -20 106 -37 172 -44 171 -6 -1 -37 -7 -69 -14z"/>
</g>
</svg>
